<?xml version="1.0" encoding="utf-8"?>
<!-- Generator: Adobe Illustrator 18.1.0, SVG Export Plug-In . SVG Version: 6.00 Build 0)  -->
<svg version="1.1" id="Layer_1" xmlns="http://www.w3.org/2000/svg" xmlns:xlink="http://www.w3.org/1999/xlink" x="0px" y="0px"
	 viewBox="0 0 200 100" enable-background="new 0 0 200 100" xml:space="preserve">
<g>
	<g>
		<path fill="#FFFFFF" d="M100.9,52c-2.2-7-3.3-12.7-3.3-17c0.1-0.2,0.4-1,0.9-2.3c0.5-1.3,0.9-2.1,1-2.5c1.4-3.7,2.2-7,2.2-9.9
			c0-2.9-0.6-5.5-1.7-8c-0.6-1.3-1.3-2.4-2.2-3.5c-0.9-1-1.9-1.8-3.2-2.4c-1.3-0.6-2.5-0.9-3.7-0.9c-1.2,0-2,0.1-2.3,0.4
			c-0.3,0.3-0.4,0.8-0.4,1.5v10.9l-0.3,51.8v0.7c0,0.7,0.2,1.3,0.6,1.7c0.4,0.5,1,0.7,1.9,0.7c0.8,0,1.4-0.2,1.7-0.7
			c0.3-0.5,0.5-1.2,0.5-2.1V35.7c0.6,2.4,1.7,6.1,3.2,11c3.4,10.8,5.2,18.9,5.5,24.3v0.3c1,1.6,2.1,2.4,3.2,2.4c0.5,0,1-0.2,1.5-0.5
			c0.5-0.3,0.7-1.5,0.7-3.5v-0.2c-0.3-1.1-1.2-3.7-2.6-7.8C102.7,57.6,101.7,54.4,100.9,52z M96.7,20.7l-1.4,7.6c-1,1.3-2,2.5-3,3.4
			c-0.1-0.9-0.1-2.2-0.1-4.1l0.5-18c1.4,0.3,2.4,1.8,3.2,4.5c0.6,2,0.9,3.7,0.9,5.1C96.9,19.8,96.8,20.3,96.7,20.7z M134.9,1.6
			c-0.7,1.3-1.2,3-1.6,5.2c-0.4,2.2-0.7,4.3-1,6.4c-0.3,2.1-0.8,3.8-1.4,4.9c-1.8-0.1-3.9-0.2-6.3-0.6c-2.3-0.3-4-0.8-4.9-1.4
			l-0.5-12.5c-0.1-1.6-1.1-2.4-3-2.4c-2.1,0.1-3.1,1.2-3,3.3c0.1,3.4,0.7,8.5,1.6,15.3c0.9,6.8,1.5,11.7,1.6,14.6
			c0.1,2.9,1,9.4,2.6,19.4c1.6,10,2.5,16.1,2.6,18.4c0.7,0.5,1.8,0.8,3.1,0.7c1.3-0.1,2.6-2.3,3.9-6.8c1.3-4.5,2.4-10,3.4-16.5
			s2.2-15.6,3.7-27.1c1.5-11.6,2.6-18,3.4-19.3C138.8,2.1,137.4,1.5,134.9,1.6z M128.3,42.3c-1.4,10.5-2.6,16.2-3.6,17.3
			c0-0.2,0-0.8,0-1.8c0-1.1-0.4-4.2-1.1-9.3c-0.7-5.1-1.4-10.5-2.2-16.1c-0.8-5.6-1.3-9.1-1.4-10.3c0.7-0.2,2-0.4,3.8-0.4
			c1.8-0.1,4,0.2,6.6,0.8C130.4,25.2,129.7,31.8,128.3,42.3z M171,55.7c0-1.5-0.3-2.8-0.9-3.7c-0.6-0.9-1.4-1.4-2.3-1.4
			c-0.9,0-1.7,0-2.5,0.1c-3.8,0.4-5.7,1.4-5.7,2.8c0,1.7,1,2.5,3,2.5l3.5-0.3c0.9,1.5,1.3,4.9,1.4,10.1c-1.7,2.5-3.9,3.7-6.5,3.7
			c-1.8-0.2-4-1.3-6.4-3.2c-0.7-0.9-1.4-2.1-1.9-3.5c-0.5-1.4-1.1-3.3-1.6-5.7c-0.5-2.4-0.8-6.4-0.8-12l0-5.5c0-2.8,0-5.6,0.1-8.4
			c0.1-2,0.2-3.8,0.4-5.4c0.2-1.6,0.4-3.7,0.8-6.3c0.4-2.6,1.2-5.4,2.6-8.3c1.3-2.6,3-4,5.2-4l2.5,0.4c0.6,0,1.2-0.2,1.6-0.6
			c0.5-0.4,0.7-0.9,0.7-1.5c0-1.7-1.4-2.5-4.1-2.5c-2.7,0-5.1,0.8-7.2,2.5c-1,0.7-1.8,1.7-2.6,2.9c-0.7,1.2-1.4,2.3-1.9,3.6
			c-0.5,1.2-1,2.6-1.4,4.2c-0.4,1.6-0.8,3.6-1.1,6.1c-0.4,2.5-0.6,6.6-0.6,12.3l0,6.5c0,3.3,0.1,6.1,0.2,8.4
			c0.1,1.8,0.3,3.5,0.5,4.9c0.2,1.4,0.5,3.3,1,5.8c0.5,2.4,1.5,5,3.1,7.7c1.4,2.5,3.5,4.3,6.2,5.4c1.3,0.5,2.5,0.8,3.8,0.8
			c1.8,0,3.5-0.5,5.3-1.5c0.9-0.5,1.6-0.8,1.9-1v0.1c0.5,1.2,1.5,1.9,2.9,1.9c1.5,0,2.2-1.1,2.2-3.2c0-1.2-0.3-3.6-0.9-7
			C171.3,59.8,171,57.3,171,55.7z M194.3,41.9c-0.9-2-2-4.1-3.1-6.3c-1.1-2.2-2.1-4.2-3.1-6.1c-0.9-1.9-1.7-4-2.4-6.3
			c-0.6-2.4-0.9-4.8-0.9-7.3c0-2.5,0.7-4.6,2.2-6.3c0.8-0.9,1.8-1.4,2.8-1.6c0.8,0.6,2,0.9,3.5,0.9l1.5-1.9
			c-0.4-0.9-1.1-1.7-2.1-2.3c-1-0.6-2-0.9-3.1-0.9c-2.1,0-3.9,0.7-5.5,2.1c-2.9,2.6-4.4,6.2-4.4,10.8c0,4.9,1.5,10.2,4.4,16.1
			c1.3,2.5,2.5,4.9,3.8,7.4c1.2,2.5,2.3,5.1,3.2,7.9c0.9,2.8,1.3,5.5,1.3,7.9c0,2.5-0.5,5.2-1.6,8.3c-0.5,1.5-1.2,2.7-2.2,3.8
			c-0.9,1-1.8,1.5-2.6,1.5c-0.8,0-1.7-0.2-2.8-0.7c-1.1-0.4-1.9-0.7-2.6-0.7c-1.3,0-2,0.8-2,2.4c0,0.7,0.6,1.4,1.8,2
			c1.2,0.6,2.9,0.9,5,0.9c2,0,3.8-0.5,5.4-1.6c1.6-1.1,2.9-2.5,3.8-4.1c2-3.5,2.9-7.2,2.9-11C197.6,51.6,196.5,46.6,194.3,41.9z
			 M78,33.2c-0.8,0-2,0.2-3.6,0.7c-0.7,0.2-1.2,0.3-1.6,0.4c0-2.7-0.3-7-0.7-12.7c-0.5-5.7-0.7-10-0.7-13c0-0.7,0.9-1.1,2.7-1.1
			l2.3,0.1c1.8,0,2.7-0.7,2.7-2c0-1.3-0.3-2.2-1-2.7c-0.7-0.4-1.6-0.7-2.8-0.7c-1.2,0-2.1,0-2.8,0c-4.5,0.2-6.7,2-6.8,5.3
			c0.7,1,1.3,9.9,1.9,26.8c0.6,16.9,1,28.3,1,34.4c0,4.1,0.9,6.1,2.8,6.1c1,0,1.7-0.2,2.3-0.7c0.6-0.5,0.9-1.1,0.9-1.7
			c0-0.6-0.1-1.1-0.2-1.5l0.2-0.6c0-3.5-0.3-8.7-0.9-15.6c-0.6-6.9-0.9-12.1-0.9-15.6c5.3,0,7.9-1,7.9-3.1c0-0.7-0.3-1.4-0.8-2
			C79.4,33.5,78.8,33.2,78,33.2z M57.3,23.3C57.3,4.6,48.1,1,29.8,1C19.5,1,9.4,2.7,3.5,4.8l4.1,16.9c5-1.5,12.9-2.8,19.9-2.8
			c6.9,0,8.6,1.5,8.6,6.6c0,8.7-1.9,10.1-34.3,33.6v16.2h56.2V57.8H29.3C53.3,42.5,57.3,38.5,57.3,23.3z"/>
	</g>
</g>
<g>
	<path fill="#FFFFFF" d="M5.4,90.6l0.4,2.1l0.1,0l0.5-2.1l2.9-9.7h1.1l2.9,9.7l0.5,2.1l0.1,0l0.4-2.1l2.5-9.7h1.1l-3.5,13.6h-1.1
		l-3-10.4l-0.4-1.4H9.8L9.4,84L6.3,94.4H5.3L1.8,80.9h1.1L5.4,90.6z"/>
	<path fill="#FFFFFF" d="M29.2,87.9h-6.5v5.6h7.5v1h-8.6V80.9h8.5v1h-7.4v5.1h6.5V87.9z"/>
	<path fill="#FFFFFF" d="M34,94.4V80.9h4c1.4,0,2.5,0.3,3.3,0.9c0.8,0.6,1.2,1.5,1.2,2.7c0,0.7-0.2,1.3-0.6,1.8
		c-0.4,0.5-0.9,0.9-1.6,1.1c0.8,0.1,1.5,0.5,2,1.2c0.5,0.6,0.8,1.4,0.8,2.2c0,1.2-0.4,2.1-1.2,2.8s-1.8,1-3.2,1H34z M35.1,87h3.1
		c1,0,1.7-0.2,2.3-0.6c0.5-0.4,0.8-1.1,0.8-1.9c0-0.9-0.3-1.5-0.9-1.9c-0.6-0.4-1.4-0.6-2.5-0.6h-2.9V87z M35.1,87.9v5.6h3.6
		c1,0,1.8-0.2,2.4-0.7c0.6-0.5,0.9-1.2,0.9-2.1c0-0.8-0.3-1.5-0.8-2c-0.5-0.5-1.3-0.8-2.3-0.8H35.1z"/>
	<path fill="#FFFFFF" d="M53.3,94.4V80.9h3.9c1.7,0,3,0.6,4.1,1.7c1.1,1.1,1.6,2.5,1.6,4.3v1.7c0,1.7-0.5,3.2-1.6,4.3
		c-1.1,1.1-2.5,1.7-4.1,1.7H53.3z M54.4,81.8v11.7h2.8c1.3,0,2.4-0.5,3.3-1.4c0.9-0.9,1.3-2.1,1.3-3.6v-1.8c0-1.4-0.4-2.6-1.3-3.5
		c-0.9-0.9-2-1.4-3.3-1.4H54.4z"/>
	<path fill="#FFFFFF" d="M74.9,87.9h-6.5v5.6h7.5v1h-8.6V80.9h8.5v1h-7.4v5.1h6.5V87.9z"/>
	<path fill="#FFFFFF" d="M83.5,92.1l0.3,0.9h0.1l0.3-0.9l4.1-11.3h1.2l-5.1,13.6h-1.1l-5.1-13.6h1.2L83.5,92.1z"/>
	<path fill="#FFFFFF" d="M100.6,87.9H94v5.6h7.5v1h-8.6V80.9h8.5v1H94v5.1h6.5V87.9z"/>
	<path fill="#FFFFFF" d="M106.5,93.5h6.7v1h-7.8V80.9h1.1V93.5z"/>
	<path fill="#FFFFFF" d="M126.2,88.8c0,1.8-0.5,3.2-1.4,4.3c-1,1.1-2.2,1.6-3.9,1.6c-1.6,0-2.9-0.5-3.8-1.6
		c-0.9-1.1-1.4-2.5-1.4-4.3v-2.2c0-1.7,0.5-3.2,1.4-4.3c0.9-1.1,2.2-1.6,3.8-1.6c1.6,0,2.9,0.5,3.9,1.6c1,1.1,1.4,2.5,1.4,4.3V88.8z
		 M125.1,86.5c0-1.5-0.4-2.7-1.1-3.5c-0.7-0.9-1.8-1.3-3.1-1.3c-1.3,0-2.3,0.4-3,1.3c-0.7,0.9-1.1,2.1-1.1,3.5v2.2
		c0,1.5,0.4,2.7,1.1,3.6c0.7,0.9,1.7,1.3,3,1.3c1.3,0,2.4-0.4,3.1-1.3c0.7-0.9,1.1-2.1,1.1-3.6V86.5z"/>
	<path fill="#FFFFFF" d="M131.6,88.8v5.6h-1.1V80.9h4.7c1.4,0,2.5,0.4,3.3,1.1c0.8,0.7,1.2,1.7,1.2,2.9c0,1.2-0.4,2.2-1.2,2.9
		c-0.8,0.7-1.9,1.1-3.3,1.1H131.6z M131.6,87.8h3.6c1.1,0,2-0.3,2.5-0.9c0.6-0.6,0.8-1.3,0.8-2.1c0-0.9-0.3-1.6-0.8-2.2
		c-0.6-0.6-1.4-0.9-2.5-0.9h-3.6V87.8z"/>
	<path fill="#FFFFFF" d="M145.2,80.9l5,12h0.1l5-12h1.5v13.6h-1.1v-6l0.1-5.9l-0.1,0l-5,12h-0.8l-5-11.9l-0.1,0l0.1,5.9v6h-1.1V80.9
		H145.2z"/>
	<path fill="#FFFFFF" d="M169.4,87.9h-6.5v5.6h7.5v1h-8.6V80.9h8.5v1h-7.4v5.1h6.5V87.9z"/>
	<path fill="#FFFFFF" d="M184.2,94.4h-1.1l-7.7-11.7l-0.1,0v11.7h-1.1V80.9h1.1l7.7,11.7l0.1,0V80.9h1.1V94.4z"/>
	<path fill="#FFFFFF" d="M198,81.8h-4.7v12.6h-1.1V81.8h-4.7v-1H198V81.8z"/>
</g>
</svg>
