<?xml version="1.0" encoding="utf-8"?>
<!-- Generator: Adobe Illustrator 18.1.0, SVG Export Plug-In . SVG Version: 6.00 Build 0)  -->
<svg version="1.1" xmlns="http://www.w3.org/2000/svg" xmlns:xlink="http://www.w3.org/1999/xlink" x="0px" y="0px"
	 viewBox="0 0 78.8 38" enable-background="new 0 0 78.8 38" xml:space="preserve">
<g id="Layer_2">
</g>
<g id="Layer_1">
	<path fill="none" stroke="#FFFFFF" stroke-miterlimit="10" d="M13,34.3c-2.7-1.6-5.3-3.1-8-4.5c-2.7-1.5-4-3.7-4-6.7
		C1.1,20,1.1,17,1,14c-0.1-3,1.3-5.3,4-6.7c2.7-1.5,5.4-3,8-4.5c2.7-1.6,5.3-1.6,8,0c2.7,1.6,5.3,3.1,8,4.5c2.7,1.5,4,3.7,4,6.7
		c-0.1,3-0.1,6.1,0,9.1c0.1,3-1.3,5.3-4,6.7c-2.7,1.5-5.4,3-8,4.5C18.3,35.9,15.7,35.9,13,34.3z"/>
	<path opacity="0.8" fill="#FFFFFF" d="M53,34.3c-2.7-1.6-5.3-3.1-8-4.5c-2.7-1.5-4-3.7-4-6.7c0.1-3,0.1-6.1,0-9.1
		c-0.1-3,1.3-5.3,4-6.7c2.7-1.5,5.4-3,8-4.5c2.7-1.6,5.3-1.6,8,0c2.7,1.6,5.3,3.1,8,4.5c2.7,1.5,4,3.7,4,6.7c-0.1,3-0.1,6.1,0,9.1
		c0.1,3-1.3,5.3-4,6.7c-2.7,1.5-5.4,3-8,4.5C58.3,35.9,55.7,35.9,53,34.3z"/>
</g>
</svg>
